<svg width="20" height="14" viewBox="0 0 20 14" fill="none" xmlns="http://www.w3.org/2000/svg">
<path d="M9.99999 2.41667C13.1583 2.41667 15.975 4.19167 17.35 7C15.975 9.80833 13.1667 11.5833 9.99999 11.5833C6.83333 11.5833 4.02499 9.80833 2.64999 7C4.02499 4.19167 6.84166 2.41667 9.99999 2.41667ZM9.99999 0.75C5.83333 0.75 2.27499 3.34167 0.833328 7C2.27499 10.6583 5.83333 13.25 9.99999 13.25C14.1667 13.25 17.725 10.6583 19.1667 7C17.725 3.34167 14.1667 0.75 9.99999 0.75ZM9.99999 4.91667C11.15 4.91667 12.0833 5.85 12.0833 7C12.0833 8.15 11.15 9.08333 9.99999 9.08333C8.84999 9.08333 7.91666 8.15 7.91666 7C7.91666 5.85 8.84999 4.91667 9.99999 4.91667ZM9.99999 3.25C7.93333 3.25 6.24999 4.93333 6.24999 7C6.24999 9.06667 7.93333 10.75 9.99999 10.75C12.0667 10.75 13.75 9.06667 13.75 7C13.75 4.93333 12.0667 3.25 9.99999 3.25Z" fill="#4C54F4"/>
</svg>

